<?xml version="1.0" encoding="utf-8"?>
<svg xmlns="http://www.w3.org/2000/svg" viewBox="165.2111 134.3346 686.7668 674.5046" width="686.7668pt" height="674.5046pt">
  <g transform="matrix(0.10000000149011612, 0, 0, -0.10000000149011612, 0, 1024)" fill="#000000" stroke="none">
    <path d="M 4446 8885 C 4290 8845 4163 8737 4054 8550 C 4020 8492 3906 8299 3800 8120 C 3367 7391 3220 7144 2958 6700 C 2166 5361 1899 4914 1827 4806 C 1783 4740 1734 4659 1719 4625 C 1584 4327 1657 3974 1905 3725 C 1981 3649 2010 3626 2090 3587 C 2145 3560 2223 3531 2275 3518 C 2325 3507 2366 3496 2368 3495 C 2369 3494 2358 3407 2344 3303 L 2317 3112 L 2341 3064 C 2369 3006 2411 2980 2472 2978 C 2525 2977 2553 2991 2666 3072 C 2713 3105 2752 3131 2754 3129 C 2756 3127 2801 3071 2854 3005 C 2908 2939 2964 2877 2979 2868 C 2995 2857 3024 2850 3054 2850 C 3098 2850 3107 2854 3145 2893 C 3181 2929 3189 2945 3199 3001 C 3206 3037 3215 3072 3219 3079 C 3225 3088 3272 3074 3406 3021 C 3504 2983 3727 2897 3900 2831 C 4379 2649 4667 2539 4865 2462 C 4964 2424 5145 2353 5267 2306 C 5558 2194 5618 2174 5719 2159 C 5937 2128 6193 2196 6378 2335 C 6490 2420 6539 2487 6713 2801 C 6782 2924 6868 3079 6905 3145 C 6942 3211 7066 3432 7180 3635 C 7293 3839 7393 4015 7400 4026 C 7407 4038 7432 4053 7454 4060 C 7556 4090 7663 4179 7711 4271 C 7761 4370 7772 4508 7735 4580 C 7717 4616 7712 4606 7960 5040 C 8293 5621 8436 5877 8462 5935 C 8552 6137 8536 6352 8420 6483 L 8390 6517 L 8381 6786 C 8373 7019 8369 7063 8351 7114 C 8325 7187 8288 7251 8244 7300 C 8212 7335 8210 7342 8210 7406 C 8209 7538 8149 7662 8030 7774 C 7951 7848 7848 7902 7705 7945 C 7559 7989 7125 8125 6403 8356 C 6030 8475 5658 8594 5575 8620 C 5493 8646 5304 8707 5156 8754 C 5008 8802 4846 8852 4796 8866 C 4681 8898 4530 8906 4446 8885 Z M 4544 8632 C 4538 8628 4506 8578 4473 8520 C 4439 8462 4353 8316 4280 8195 C 4207 8074 4012 7739 3750 7305 C 3680 7190 3557 6982 3487 6866 C 3446 6800 3400 6723 3385 6695 C 3370 6668 3305 6558 3242 6451 C 3156 6305 2974 6002 2951 5962 C 2926 5919 2631 5428 2569 5323 C 2513 5229 2468 5156 2429 5090 C 2363 4981 2352 4965 2338 4935 C 2327 4911 2323 4910 2243 4910 L 2159 4910 L 2183 4943 C 2196 4960 2265 5074 2335 5195 C 2406 5316 2505 5484 2556 5567 C 2607 5651 2713 5829 2791 5962 C 3043 6394 3270 6772 3655 7420 C 3706 7505 3782 7635 3824 7707 C 3867 7780 4271 8464 4327 8536 C 4357 8576 4405 8608 4463 8626 C 4509 8640 4562 8644 4544 8632 Z M 6167 8094 C 6361 8066 6545 7999 6707 7899 C 6815 7831 6987 7664 7060 7556 C 7221 7315 7298 7044 7286 6755 C 7272 6378 7138 6075 6866 5805 C 6638 5578 6383 5440 6070 5374 C 5950 5348 5687 5348 5570 5373 C 5287 5433 5057 5555 4856 5749 C 4671 5929 4551 6152 4493 6420 C 4466 6546 4469 6799 4498 6937 C 4562 7233 4677 7455 4875 7659 C 5063 7854 5274 7980 5536 8055 C 5726 8109 5966 8124 6167 8094 Z M 7629 7725 C 7831 7658 7882 7624 7931 7524 C 7972 7441 7980 7365 7955 7288 C 7933 7220 7805 6952 7783 6928 C 7763 6905 7737 6905 7718 6928 C 7701 6947 7410 7717 7410 7743 C 7410 7759 7435 7779 7455 7780 C 7461 7780 7539 7755 7629 7725 Z M 8138 6644 L 8135 6312 L 8095 6234 C 8041 6129 7426 5060 7420 5060 C 7415 5060 7318 5195 7232 5320 L 7198 5368 L 7451 5817 C 7832 6493 8013 6821 8072 6939 L 8125 7045 L 8133 7010 C 8137 6991 8140 6826 8138 6644 Z M 6805 5512 C 6819 5502 6900 5399 6900 5391 C 6900 5388 6843 5346 6774 5298 L 6648 5211 L 6598 5287 C 6571 5328 6550 5363 6552 5365 C 6554 5366 6601 5397 6657 5434 C 6713 5470 6762 5505 6765 5510 C 6772 5522 6791 5523 6805 5512 Z M 7062 5223 C 7071 5213 7137 5120 7210 5015 C 7283 4911 7383 4768 7432 4698 C 7533 4553 7550 4518 7550 4458 C 7549 4366 7490 4293 7397 4270 C 7328 4252 7268 4271 7210 4329 C 7154 4385 6738 4976 6732 5007 C 6725 5044 6753 5074 6877 5159 C 6999 5243 7034 5255 7062 5223 Z M 2753 4517 C 2831 4487 2937 4448 2989 4430 L 3083 4397 L 3077 3956 C 3074 3713 3066 3463 3061 3400 C 3046 3241 3029 3120 3021 3120 C 3018 3120 2979 3170 2935 3231 C 2835 3370 2817 3390 2788 3390 C 2775 3390 2714 3354 2651 3309 C 2588 3265 2540 3236 2544 3245 C 2554 3272 2569 3657 2575 4080 C 2581 4488 2585 4570 2601 4570 C 2606 4570 2674 4546 2753 4517 Z M 6867 4405 C 6921 4328 6969 4260 6973 4253 C 6977 4247 6950 4190 6912 4123 C 6874 4058 6720 3794 6570 3535 C 6420 3277 6274 3025 6246 2976 C 6116 2750 5873 2636 5647 2695 C 5615 2703 5357 2798 5072 2906 C 4788 3014 4479 3130 4385 3165 C 4292 3200 4046 3291 3840 3368 C 3634 3445 3417 3524 3358 3545 C 3296 3567 3253 3587 3255 3594 C 3261 3612 3270 3932 3270 4136 L 3270 4327 L 3478 4249 C 3592 4207 3901 4093 4165 3997 C 4429 3900 4850 3745 5100 3652 C 5350 3559 5580 3477 5609 3470 C 5675 3454 5858 3462 5938 3484 C 6041 3512 6133 3564 6197 3629 C 6263 3698 6266 3702 6550 4203 C 6662 4400 6756 4558 6760 4553 C 6764 4549 6812 4482 6867 4405 Z M 2397 4200 C 2397 4019 2394 3890 2389 3890 C 2374 3890 2290 4010 2262 4070 C 2232 4134 2220 4277 2239 4348 C 2253 4399 2296 4451 2353 4484 C 2376 4497 2395 4508 2395 4509 C 2395 4510 2396 4370 2397 4200 Z M 6072 4363 C 6082 4354 6090 4340 6090 4331 C 6090 4322 6059 4258 6021 4188 C 5871 3914 5829 3869 5714 3862 C 5656 3858 5633 3864 5443 3930 C 5328 3970 5227 4009 5218 4018 C 5194 4038 5195 4073 5221 4096 C 5237 4111 6005 4375 6044 4379 C 6049 4380 6062 4373 6072 4363 Z"/>
    <path d="M5795 7883 c-247 -31 -518 -154 -708 -323 -111 -100 -240 -276 -293 -401 -59 -141 -104 -344 -104 -476 0 -205 85 -471 199 -623 56 -75 162 -182 235 -238 216 -166 430 -242 687 -242 347 0 644 123 890 369 182 182 300 397 345 627 38 189 14 450 -56 633 -63 162 -197 337 -349 452 -91 69 -267 154 -381 183 -144 38 -343 54 -465 39z m744 -651 c47 -23 72 -61 78 -113 7 -62 -20 -104 -161 -256 -571 -612 -622 -664 -661 -683 -23 -11 -56 -20 -73 -20 -75 0 -102 22 -326 268 -119 131 -223 247 -231 259 -9 13 -18 44 -21 70 -10 91 55 163 145 163 60 0 88 -20 192 -135 45 -49 118 -128 163 -174 l80 -83 71 73 c38 41 184 196 324 344 140 149 268 278 285 287 40 22 92 22 135 0z"/>
    <path d="M7652 7518 c-19 -19 -14 -46 22 -143 48 -127 72 -135 110 -37 33 86 16 132 -61 171 -49 24 -55 25 -71 9z"/>
    <path d="M5665 4131 c-105 -36 -110 -39 -110 -66 0 -25 6 -31 55 -51 80 -33 116 -31 154 9 48 51 73 104 60 125 -17 26 -40 24 -159 -17z"/>
  </g>
</svg>
