<svg xmlns="http://www.w3.org/2000/svg" width="88" height="86" fill="none" viewBox="0 0 88 86">
  <path fill="#D4D4D4" d="M35.943 1.018c-1.965.504-3.563 1.863-4.936 4.218-.428.73-1.863 3.16-3.198 5.414-5.452 9.178-7.303 12.288-10.601 17.879C7.236 45.388 3.874 51.016 2.968 52.374c-.554.831-1.171 1.851-1.36 2.28-1.7 3.751-.78 8.196 2.342 11.33.957.958 1.322 1.247 2.329 1.738.692.34 1.675.705 2.33.87.629.138 1.145.276 1.17.289.013.012-.126 1.108-.302 2.417l-.34 2.405.302.604c.353.73.882 1.058 1.65 1.083.667.013 1.02-.164 2.442-1.184.592-.415 1.083-.742 1.108-.717.025.025.592.73 1.26 1.561.68.831 1.384 1.612 1.573 1.725.202.139.567.227.944.227.554 0 .668-.05 1.146-.542.453-.453.554-.654.68-1.36.088-.453.201-.894.252-.982.075-.113.667.063 2.354.73 1.234.48 4.042 1.562 6.22 2.393 6.031 2.291 9.657 3.676 12.15 4.646 1.247.478 3.525 1.372 5.062 1.964 3.663 1.41 4.419 1.662 5.69 1.85 2.745.391 5.969-.465 8.298-2.215 1.41-1.07 2.027-1.914 4.218-5.867.869-1.549 1.951-3.5 2.417-4.332l3.463-6.17a323.892 323.892 0 0 1 2.77-4.922c.088-.151.403-.34.68-.428 1.284-.378 2.631-1.498 3.235-2.657.63-1.246.768-2.984.302-3.89-.226-.453-.29-.328 2.833-5.792 4.193-7.315 5.994-10.538 6.32-11.269 1.134-2.543.933-5.25-.528-6.9l-.378-.428-.113-3.386c-.1-2.934-.151-3.488-.378-4.13-.327-.92-.793-1.725-1.347-2.342-.403-.44-.428-.529-.428-1.335-.013-1.662-.768-3.223-2.266-4.633-.995-.932-2.292-1.612-4.092-2.153-1.838-.554-7.303-2.266-16.393-5.175-4.697-1.498-9.38-2.996-10.425-3.324-1.033-.327-3.413-1.095-5.276-1.687a170.487 170.487 0 0 0-4.533-1.41C38.902.854 37 .754 35.943 1.017Zm1.234 3.185c-.076.05-.479.68-.894 1.41-.428.73-1.511 2.569-2.43 4.092-.92 1.524-3.375 5.742-6.673 11.206-.882 1.448-2.43 4.067-3.312 5.527-.516.831-1.095 1.8-1.284 2.154-.189.34-1.007 1.724-1.8 3.072-1.083 1.838-3.375 5.653-3.664 6.157-.315.54-4.03 6.723-4.81 8.045-.705 1.184-1.272 2.103-1.763 2.934-.83 1.372-.97 1.573-1.146 1.95-.138.303-.188.316-1.196.316H7.148l.302-.416c.164-.214 1.032-1.649 1.914-3.172.894-1.524 2.14-3.64 2.782-4.684a469.773 469.773 0 0 0 2.959-4.973c3.173-5.44 6.031-10.2 10.878-18.358.642-1.07 1.6-2.707 2.128-3.613.542-.92 5.628-9.531 6.333-10.438.378-.504.982-.907 1.713-1.133.579-.176 1.246-.227 1.02-.076Zm20.434 6.774a17.79 17.79 0 0 1 6.8 2.455c1.36.857 3.525 2.959 4.444 4.319 2.027 3.034 2.996 6.446 2.845 10.085-.176 4.747-1.863 8.562-5.288 11.961-2.87 2.858-6.081 4.596-10.022 5.427-1.51.327-4.822.327-6.295.012-3.564-.755-6.46-2.291-8.99-4.734-2.33-2.266-3.84-5.074-4.57-8.448-.34-1.587-.303-4.772.062-6.51.806-3.726 2.254-6.521 4.747-9.09 2.367-2.455 5.024-4.042 8.322-4.986 2.393-.68 5.415-.868 7.945-.491Zm18.408 4.646c2.543.844 3.185 1.272 3.802 2.53.517 1.046.617 2.003.302 2.972-.276.857-1.888 4.23-2.165 4.533-.252.29-.58.29-.819 0-.214-.24-3.877-9.934-3.877-10.262 0-.201.314-.453.566-.466.076 0 1.058.315 2.19.693Zm6.409 13.61-.038 4.18-.504.983c-.68 1.322-8.423 14.781-8.499 14.781-.063 0-1.284-1.7-2.367-3.273l-.428-.605 3.186-5.653c4.797-8.511 7.076-12.641 7.819-14.127l.667-1.334.1.44c.05.24.089 2.317.064 4.609ZM65.644 43.487c.176.126 1.196 1.423 1.196 1.524 0 .038-.717.566-1.586 1.17l-1.587 1.096-.63-.957c-.34-.516-.603-.957-.578-.982.025-.012.617-.403 1.322-.869.705-.453 1.322-.894 1.36-.957.088-.15.327-.163.503-.025Zm3.236 3.64c.113.125.944 1.296 1.863 2.618.92 1.31 2.178 3.11 2.796 3.991 1.271 1.826 1.485 2.267 1.485 3.022-.012 1.158-.755 2.077-1.926 2.367-.869.227-1.624-.013-2.355-.743-.705-.705-5.942-8.146-6.018-8.536-.088-.466.265-.844 1.826-1.914 1.536-1.058 1.977-1.209 2.329-.806Zm-54.253 8.888c.982.378 2.316.869 2.971 1.095l1.184.416-.076 5.552c-.038 3.06-.139 6.207-.201 7-.19 2.003-.403 3.526-.504 3.526-.038 0-.529-.63-1.083-1.397-1.259-1.75-1.486-2.002-1.85-2.002-.164 0-.932.453-1.726 1.02-.793.553-1.397.919-1.347.805.126-.34.315-5.187.39-10.513.076-5.137.126-6.17.328-6.17.063 0 .919.303 1.914.668Zm51.798 1.41c.68.97 1.284 1.826 1.334 1.914.05.075-.29.793-.768 1.637-.478.818-2.417 4.142-4.306 7.403a2113.168 2113.168 0 0 0-4.08 7.038c-1.636 2.846-4.695 4.281-7.54 3.538-.404-.1-3.652-1.297-7.24-2.656-3.576-1.36-7.467-2.82-8.65-3.261-1.171-.441-4.269-1.587-6.862-2.556a552.771 552.771 0 0 0-6.069-2.229c-.78-.277-1.322-.529-1.297-.617.076-.227.189-4.256.189-6.824v-2.405l2.619.982c1.435.529 5.326 1.964 8.65 3.173a3818.45 3818.45 0 0 1 11.772 4.344c3.148 1.171 6.044 2.203 6.409 2.291.83.202 3.135.101 4.142-.176 1.297-.352 2.455-1.007 3.261-1.825.831-.87.869-.92 4.445-7.228 1.41-2.48 2.593-4.47 2.644-4.406.05.05.654.894 1.347 1.863Zm-56.28 2.581c0 2.28-.038 3.903-.101 3.903-.19 0-1.247-1.51-1.6-2.266-.377-.806-.528-2.606-.289-3.5.176-.642.718-1.297 1.435-1.713.29-.163.53-.302.53-.314 0-.013.012 1.75.024 3.89Zm46.27-2.052c.126.113.227.29.227.403 0 .113-.39.919-.869 1.8-1.889 3.45-2.417 4.017-3.865 4.105-.73.05-1.02-.025-3.412-.856-1.448-.504-2.72-.995-2.833-1.108-.302-.252-.29-.693.038-.982.2-.19 9.87-3.513 10.362-3.564.063-.012.226.076.352.202Z"/>
  <path fill="#D4D4D4" d="M52.928 13.634c-3.11.39-6.522 1.938-8.915 4.066-1.397 1.26-3.021 3.476-3.689 5.05-.742 1.775-1.31 4.33-1.31 5.992 0 2.582 1.071 5.93 2.506 7.845.705.944 2.04 2.29 2.96 2.996 2.719 2.09 5.413 3.047 8.65 3.047 4.368 0 8.107-1.549 11.205-4.646 2.291-2.291 3.777-4.998 4.344-7.894.478-2.38.176-5.666-.705-7.97-.794-2.04-2.48-4.243-4.395-5.691-1.145-.869-3.361-1.939-4.797-2.304-1.813-.479-4.318-.68-5.854-.491Zm9.367 8.196c.592.29.907.768.982 1.423.088.78-.252 1.31-2.027 3.223-7.19 7.706-7.831 8.36-8.322 8.6-.29.138-.706.251-.92.251-.944 0-1.284-.276-4.104-3.374-1.498-1.65-2.808-3.11-2.909-3.26-.113-.165-.226-.555-.264-.882-.126-1.146.693-2.053 1.826-2.053.755 0 1.108.252 2.417 1.7.567.617 1.486 1.612 2.052 2.191l1.008 1.045.894-.92c.478-.515 2.316-2.467 4.079-4.33 1.763-1.876 3.374-3.5 3.588-3.614.504-.277 1.159-.277 1.7 0Zm14.013-3.6c-.239.239-.176.579.277 1.8.605 1.599.907 1.7 1.385.466.416-1.083.202-1.662-.767-2.153-.618-.302-.693-.315-.895-.114ZM51.29 60.874c-1.321.453-1.384.491-1.384.831 0 .315.075.39.692.642 1.008.416 1.46.39 1.94-.113.604-.642.918-1.31.755-1.574-.214-.327-.504-.302-2.002.214Z"/>
</svg>
