<svg xmlns="http://www.w3.org/2000/svg" width="501" height="357" fill="none" viewBox="0 0 501 357">
  <path fill="#FEE6CE" d="M398.657 119.385h38.775v22.513h-38.775z"/>
  <path stroke="#EDC59F" d="M398.657 124.018h38.775m-38.775 4.4h38.775m-38.775 4.4h38.775m-38.775 4.4h38.775"/>
  <path fill="#EE0714" d="M476.061 117.091h-77.47c-1.132 0-2.049.65-2.049 1.45v1.656c0 .269.308.487.688.487h33.203c3.334 0 6.036 1.911 6.036 4.269v12.175c0 2.359-2.702 4.27-6.036 4.27H397.23c-.38 0-.688.218-.688.487v1.656c0 .8.917 1.449 2.049 1.449h77.47c4.065 0 7.359-2.33 7.359-5.205v-17.489c0-2.874-3.294-5.205-7.359-5.205Z"/>
  <path fill="#FEE6CE" d="M492.909 114.041h-38.775V91.528h38.775z"/>
  <path stroke="#EDC59F" d="M492.909 97.162h-38.775m38.775 4.4h-38.775m38.775 4.4h-38.775m38.775 4.399h-38.775"/>
  <path fill="#FF7A5F" d="M415.505 89.235h77.47c1.132 0 2.05.65 2.05 1.45v1.655c0 .27-.309.487-.689.487h-33.203c-3.333 0-6.036 1.912-6.036 4.27v12.175c0 2.358 2.703 4.269 6.036 4.269h33.203c.38 0 .689.219.689.488v1.655c0 .801-.918 1.45-2.05 1.45h-77.47c-4.064 0-7.359-2.331-7.359-5.205V94.44c0-2.874 3.295-5.205 7.359-5.205Z"/>
  <path fill="#FB6046" d="m389.208 68.465 38.531-10.644 15.23-25.695 8.616 54.164-53.807 12.13-8.57-29.955Z"/>
  <path fill="#FB6046" d="m414.5.757 27.254 47.596-46.015 30.413-18.631-24.974 32.257-23.609L414.5.758Z"/>
  <path fill="#FF7A5F" d="m308.121 148.547 108.074-35.41-14.9-46.177-93.174 81.587Z"/>
  <g filter="url(#a)">
    <path fill="#EDEEEF" d="M91.558 304.295c21.98 15.193 78.391 44.118 117.53-12.563 39.139-56.68 73.031-113.945 73.031-113.945l134.076-87.503-35.06-54.343s-116.254 73.771-130.863 83.997c-14.608 10.226-20.744 17.864-33.307 32.597-12.563 14.733-125.407 151.76-125.407 151.76Z"/>
  </g>
  <path stroke="#000" d="M400.207 65.502s-113.998 75.551-126.561 84.276c-12.564 8.726-20.744 13.076-30.678 27.846-9.934 14.771-46.155 76.076-55.946 91.586-9.792 15.51-34.334 35.669-62.09 18.431"/>
  <g filter="url(#b)">
    <path fill="#F5412E" d="M131.286 255.641c-7.787-53.061-33.503-97.068-52.062-99.224-50.044 6.472-71.567 116.195-16.34 162.217 2.13 1.776 5.38 3.572 7.583 4.674-16.405-18.746-2.882-39.723 14.978-55.384l2.545 13.071 43.296-25.354Z"/>
  </g>
  <path stroke="#000" d="m96.877 258.693-11.62-57.463"/>
  <path fill="#F5ACA5" d="M83.406 140.847c-3.882 7.788-6.63 12.83-8.95 17.45-3.132 6.237 8.877 11.475 11.36 3.814 2.163-6.67 6.085-17.196 6.085-17.196l-8.495-4.068Z"/>
  <path fill="#964C4B" d="M90.175 149.608c-.71 1.959-1.56 4.324-2.383 6.68l-2.157-7.4c.268.19.436.233.436.233 1.47.46 2.837.602 4.104.487Z"/>
  <path fill="#050404" d="M89.497 129.821c-12.623-1.568-16.722-13.418-12.969-19.283 3.754-5.865 10.505-5.445 14.737-.917 4.233 4.528 3.911 14.214-1.768 20.2Z"/>
  <path fill="#F5ACA5" d="M90.106 138.01c-.475-3.585-5.264-1.836-3.166 2.153 0 0-1.974 1.347-4.174 1.736l.003.024c.914 6.584 3.303 7.196 3.303 7.196 9.049 2.849 14.391-6.555 15.118-12.206-4.376 1.747-9.355 1.899-11.084 1.097Z"/>
  <path fill="#050404" d="M90.106 138.01c1.729.802 6.708.65 11.084-1.097a9.07 9.07 0 0 0 .075-1.689c-.35-5.694-6.31-8.181-11.12-7.125-5.37 1.179-8.283 7.226-7.38 13.8 2.2-.389 4.175-1.736 4.175-1.736-2.098-3.989 2.69-5.738 3.166-2.153Z"/>
  <path fill="#FEE6CE" d="m189.778 157.081-26.645 36.826 24.738 24.799 23.039-37.03-21.132-24.595Z"/>
  <path fill="#E66F82" d="M214.814 183.736c0 .38-22.86 37.763-22.86 37.763l-39.277-7.072 25.006-35.363 37.131 4.672Z"/>
  <path fill="#F5ACA5" d="M203.246 203.158c-3.117 4.36-5.764 7.296-8.991 6.638-1.561-.317 1.235-3.034 3.11-4.972 4.529-4.678 1.563-3.677-3.353-1.011-22.571 12.242-66.336 32.851-96.645 54.781-22.545 15.822-47.602 43.033-29.244 62.843 6.587 7.108 23.939 4.327 41.153-5.539 32.141-18.418 69.908-58.129 93.52-99.495 3.325-5.824 5.475-11.284 6.138-15.969.75-5.308-1.249-3.486-5.688 2.724Z"/>
  <path fill="#CC6273" d="m177.683 179.064 1.394-1.66 31.833 4.272-21.132-24.595 2.455-.605 22.581 27.261-37.131-4.673Z"/>
  <path fill="#FEE6CE" d="M418.098 165.673h70.308c4.68 0 8.51-3.753 8.51-8.34s-3.83-8.34-8.51-8.34h-70.308v16.68Z"/>
  <path stroke="#EDC59F" d="M418.097 160.854h78.818m-78.818-4.127h78.818m-78.818-4.126h78.818"/>
  <path fill="#FFA892" d="M420.191 148.993h68.215c4.68 0 8.51 3.753 8.51 8.34s-3.83 8.34-8.51 8.34h-74.393v4.003h74.393c6.944 0 12.594-5.537 12.594-12.343s-5.65-12.343-12.594-12.343h-74.393v4.003h6.178Z"/>
  <path fill="#FEE6CE" d="M481.044 254.434h-75.376c-5.018 0-9.123-3.893-9.123-8.652 0-4.759 4.105-8.652 9.123-8.652h75.376v17.304Z"/>
  <path stroke="#EDC59F" d="M481.043 250.453h-84.498m84.498-4.28h-84.498m84.498-4.281h-84.498"/>
  <path fill="#FF7A5F" d="M478.799 237.13h-73.131c-5.018 0-9.123 3.894-9.123 8.652 0 4.759 4.105 8.652 9.123 8.652h79.755v4.153h-79.755c-7.445 0-13.502-5.744-13.502-12.805 0-7.06 6.057-12.805 13.502-12.805h79.755v4.153h-6.624Z"/>
  <path fill="#FEE6CE" d="M496.62 228.517h-75.385c-5.018 0-9.124-4.183-9.124-9.294 0-5.111 4.106-9.293 9.124-9.293h75.385v18.587Z"/>
  <path stroke="#EDC59F" d="M496.621 224.203h-84.51m84.51-4.598h-84.51m84.51-4.598h-84.51"/>
  <path fill="#FF9178" d="M494.376 209.93h-73.141c-5.018 0-9.124 4.182-9.124 9.293 0 5.111 4.106 9.294 9.124 9.294H501v4.46h-79.765c-7.446 0-13.504-6.17-13.504-13.754s6.058-13.754 13.504-13.754H501v4.461h-6.624Z"/>
  <path fill="#FEE6CE" d="M390.282 261.127h42.94v24.931h-42.94z"/>
  <path stroke="#EDC59F" d="M390.282 266.312h42.941m-42.941 4.872h42.941m-42.941 4.873h42.941m-42.941 4.873h42.941"/>
  <path fill="#F5412E" d="M476.002 258.587h-85.793c-1.253 0-2.27.719-2.27 1.606v1.833c0 .298.342.54.763.54h36.77c3.692 0 6.684 2.117 6.684 4.728v13.483c0 2.611-2.992 4.728-6.684 4.728h-36.77c-.421 0-.763.242-.763.539v1.834c0 .887 1.017 1.605 2.27 1.605h85.793c4.501 0 8.15-2.58 8.15-5.764v-19.367c0-3.184-3.649-5.765-8.15-5.765Z"/>
  <path fill="#FEE6CE" d="M403.264 172.424h41.046v29.054h-41.046z"/>
  <path stroke="#EDC59F" d="M403.264 178.549h41.046m-41.046 5.678h41.046m-41.046 5.678h41.046m-41.046 5.679h41.046"/>
  <path fill="#6285D9" d="M485.202 169.465h-82.008c-1.198 0-2.169.837-2.169 1.871v2.136c0 .347.326.629.728.629h35.148c3.529 0 6.39 2.467 6.39 5.51v15.712c0 3.043-2.861 5.51-6.39 5.51h-35.148c-.402 0-.728.281-.728.629v2.136c0 1.033.971 1.871 2.169 1.871h82.008c4.302 0 7.79-3.008 7.79-6.718v-22.569c0-3.71-3.488-6.717-7.79-6.717Z"/>
  <path fill="#FEE6CE" d="M491.794 321.329h-41.046v-28.901h41.046z"/>
  <path stroke="#EDC59F" d="M491.794 299.517h-41.046m41.046 5.649h-41.046m41.046 5.648h-41.046m41.046 5.649h-41.046"/>
  <path fill="#FB6046" d="M409.856 289.483h82.008c1.198 0 2.17.833 2.17 1.861v2.125c0 .346-.327.626-.729.626h-35.148c-3.529 0-6.39 2.454-6.39 5.481v15.63c0 3.027 2.861 5.481 6.39 5.481h35.148c.402 0 .729.28.729.625v2.126c0 1.028-.972 1.861-2.17 1.861h-82.008c-4.302 0-7.79-2.992-7.79-6.683v-22.45c0-3.691 3.488-6.683 7.79-6.683Z"/>
  <path fill="#FFA892" d="m427.739 57.821 15.23-25.695.936 23.251-16.166 2.444Z"/>
  <defs>
    <filter id="a" width="374.638" height="339.358" x="66.558" y="13.941" color-interpolation-filters="sRGB" filterUnits="userSpaceOnUse">
      <feFlood flood-opacity="0" result="BackgroundImageFix"/>
      <feColorMatrix in="SourceAlpha" result="hardAlpha" values="0 0 0 0 0 0 0 0 0 0 0 0 0 0 0 0 0 0 127 0"/>
      <feOffset dy="3"/>
      <feGaussianBlur stdDeviation="12.5"/>
      <feComposite in2="hardAlpha" operator="out"/>
      <feColorMatrix values="0 0 0 0 1 0 0 0 0 1 0 0 0 0 1 0 0 0 0.462745 0"/>
      <feBlend in2="BackgroundImageFix" result="effect1_dropShadow_2_1486"/>
      <feBlend in="SourceGraphic" in2="effect1_dropShadow_2_1486" result="shape"/>
    </filter>
    <filter id="b" width="160.953" height="226.891" x=".333" y="129.417" color-interpolation-filters="sRGB" filterUnits="userSpaceOnUse">
      <feFlood flood-opacity="0" result="BackgroundImageFix"/>
      <feColorMatrix in="SourceAlpha" result="hardAlpha" values="0 0 0 0 0 0 0 0 0 0 0 0 0 0 0 0 0 0 127 0"/>
      <feOffset dy="3"/>
      <feGaussianBlur stdDeviation="15"/>
      <feComposite in2="hardAlpha" operator="out"/>
      <feColorMatrix values="0 0 0 0 1 0 0 0 0 1 0 0 0 0 1 0 0 0 0.305882 0"/>
      <feBlend in2="BackgroundImageFix" result="effect1_dropShadow_2_1486"/>
      <feBlend in="SourceGraphic" in2="effect1_dropShadow_2_1486" result="shape"/>
    </filter>
  </defs>
</svg>
