<svg xmlns="http://www.w3.org/2000/svg" width="60" height="46" fill="none" viewBox="0 0 60 46">
  <path fill="#FB6046" d="M9.573.613h-.005c-.557 0-1.08.217-1.476.612-.4.399-.62.93-.62 1.495v31.585c0 1.159.946 2.103 2.109 2.106 4.903.012 13.117 1.034 18.784 6.964V10.32c0-.393-.1-.762-.29-1.067C23.426 1.763 14.488.625 9.574.613Zm42.956 33.692V2.72c0-.566-.22-1.097-.62-1.495a2.077 2.077 0 0 0-1.476-.612h-.005c-4.914.012-13.852 1.15-18.503 8.64-.19.305-.29.674-.29 1.067v33.055c5.667-5.93 13.882-6.952 18.785-6.964a2.114 2.114 0 0 0 2.109-2.106Z"/>
  <path fill="#FB6046" d="M57.326 7.897h-1.527v26.408c0 2.958-2.41 5.369-5.371 5.376-4.16.01-11.017.823-15.873 5.42 8.4-2.057 17.253-.72 22.3.43a2.102 2.102 0 0 0 1.786-.407 2.094 2.094 0 0 0 .791-1.645V10.004a2.108 2.108 0 0 0-2.106-2.107ZM4.201 34.305V7.897H2.674a2.109 2.109 0 0 0-2.106 2.107v33.474c0 .644.289 1.244.792 1.645a2.1 2.1 0 0 0 1.786.408c5.046-1.15 13.9-2.487 22.299-.43-4.856-4.597-11.713-5.41-15.872-5.42C6.61 39.674 4.2 37.263 4.2 34.305Z"/>
</svg>
