<svg xmlns="http://www.w3.org/2000/svg" width="32" height="32" fill="none" viewBox="0 0 32 32">
  <path fill="#fff" d="M16.709 32h-1.974a2.898 2.898 0 0 1-2.894-2.895v-.667a12.696 12.696 0 0 1-1.971-.819l-.474.474a2.895 2.895 0 0 1-4.094 0l-1.395-1.395a2.895 2.895 0 0 1 0-4.095l.474-.473a12.696 12.696 0 0 1-.819-1.97h-.667A2.898 2.898 0 0 1 0 17.264V15.29a2.898 2.898 0 0 1 2.895-2.895h.667c.217-.678.49-1.337.819-1.97l-.474-.474a2.895 2.895 0 0 1 0-4.094l1.396-1.395a2.894 2.894 0 0 1 4.094 0l.473.473a12.703 12.703 0 0 1 1.97-.818V3.45A2.898 2.898 0 0 1 14.737.556h1.973a2.898 2.898 0 0 1 2.895 2.894v.668c.678.217 1.338.49 1.97.818l.474-.473a2.895 2.895 0 0 1 4.094 0l1.395 1.395a2.895 2.895 0 0 1 0 4.094l-.473.473c.328.634.601 1.293.818 1.971h.668a2.898 2.898 0 0 1 2.894 2.895v1.974a2.898 2.898 0 0 1-2.894 2.894h-.668c-.217.679-.49 1.338-.818 1.972l.473.473a2.895 2.895 0 0 1 0 4.094l-1.395 1.395a2.894 2.894 0 0 1-4.095 0l-.472-.473c-.633.327-1.293.601-1.971.818v.668A2.898 2.898 0 0 1 16.709 32Zm-6.531-6.315c.88.52 1.826.913 2.814 1.168a.921.921 0 0 1 .691.892v1.36c0 .58.472 1.053 1.053 1.053h1.973c.58 0 1.052-.472 1.052-1.053v-1.36c0-.42.285-.787.691-.892a10.864 10.864 0 0 0 2.815-1.168.921.921 0 0 1 1.12.141l.964.964a1.052 1.052 0 0 0 1.488 0l1.395-1.395a1.052 1.052 0 0 0 0-1.488l-.963-.964a.921.921 0 0 1-.142-1.12c.52-.88.914-1.827 1.169-2.815a.921.921 0 0 1 .892-.691h1.36c.58 0 1.052-.472 1.052-1.052V15.29c0-.58-.472-1.052-1.052-1.052h-1.36a.921.921 0 0 1-.892-.691 10.86 10.86 0 0 0-1.169-2.815.921.921 0 0 1 .142-1.12l.963-.964a1.052 1.052 0 0 0 0-1.487L24.84 5.766a1.052 1.052 0 0 0-1.488 0l-.964.964a.921.921 0 0 1-1.12.141 10.86 10.86 0 0 0-2.815-1.168.921.921 0 0 1-.69-.892V3.45c0-.58-.473-1.053-1.053-1.053h-1.973c-.58 0-1.053.472-1.053 1.052v1.36c0 .42-.284.788-.69.893-.989.255-1.936.648-2.815 1.168a.921.921 0 0 1-1.12-.142l-.964-.963a1.052 1.052 0 0 0-1.488 0L5.21 7.16a1.052 1.052 0 0 0 0 1.488l.964.964a.921.921 0 0 1 .141 1.12c-.52.88-.913 1.827-1.168 2.815a.921.921 0 0 1-.892.69h-1.36c-.58 0-1.053.473-1.053 1.053v1.974c0 .58.473 1.052 1.053 1.052h1.36c.42 0 .787.284.892.69.255.989.648 1.936 1.168 2.816a.921.921 0 0 1-.141 1.12l-.964.963a1.052 1.052 0 0 0 0 1.488l1.395 1.396a1.052 1.052 0 0 0 1.488 0l.964-.964c.22-.219.675-.405 1.12-.141Z"/>
  <path fill="#fff" d="M15.722 23.12a6.85 6.85 0 0 1-6.841-6.842 6.85 6.85 0 0 1 6.841-6.842 6.85 6.85 0 0 1 6.842 6.842 6.85 6.85 0 0 1-6.842 6.841Zm0-11.841a5.005 5.005 0 0 0-4.999 4.999 5.005 5.005 0 0 0 5 4.999 5.005 5.005 0 0 0 4.998-5 5.004 5.004 0 0 0-4.999-4.998Z"/>
</svg>
